<svg width="120" height="100" viewBox="0 0 120 100" fill="none" xmlns="http://www.w3.org/2000/svg">
<path d="M26.6659 23C11.9385 23 0 34.9384 0 49.6658C0 64.3932 11.9385 76.3316 26.6659 76.3316C41.3933 76.3316 53.3318 64.3932 53.3318 49.6658C53.3318 34.9384 41.3933 23 26.6659 23ZM51.5978 49.6658C51.5978 63.4354 40.4355 74.5976 26.6659 74.5976C12.8962 74.5976 1.73271 63.4354 1.73271 49.6658C1.73271 35.8962 12.895 24.734 26.6646 24.734C40.4342 24.734 51.5978 35.8962 51.5978 49.6658Z" fill="#14142B"/>
<path d="M39.5885 38.3529C39.9504 38.7417 40.4721 39.3695 40.765 39.7493L46.1651 36.321C45.8953 35.9681 45.4657 35.4323 45.1447 35.055L41.7253 37.3159L41.4926 37.5166L41.6665 37.2622L43.1754 34.2481L42.1089 33.1817L39.0936 34.6919L38.8392 34.8658L39.0412 34.6318L41.3033 31.2137C40.9056 30.8748 40.5233 30.5641 40.0348 30.1881L36.6064 35.5844C37.0412 35.9195 37.6128 36.4092 37.9773 36.743L41.2036 35.0691L41.4095 34.9169L41.2573 35.1241L39.5885 38.3529Z" fill="#14142B"/>
<path d="M27.3369 31.5154L28.8126 28.2112L28.9072 27.9183L28.8804 28.2239L29.0351 32.6395C29.553 32.6893 30.0875 32.7597 30.6144 32.8479L30.374 26.3071C29.6361 26.2253 28.9021 26.1677 28.1694 26.1357L26.7167 29.7431L26.6656 30.0104L26.6144 29.7431L25.1618 26.1357C24.4278 26.1664 23.6938 26.2253 22.9572 26.3071L22.7168 32.8479C23.2449 32.761 23.7794 32.6893 24.2961 32.6395L24.4508 28.2239L24.4239 27.9183L24.5186 28.2112L25.9942 31.5154H27.3369Z" fill="#14142B"/>
<path d="M15.4026 36.7276C16.2555 35.8286 16.7389 34.7915 15.8847 33.7992C15.4205 33.2609 14.6417 33.1432 13.9947 33.4092L13.9307 33.4348L13.9512 33.3785C14.0471 33.1228 14.1072 32.3082 13.4128 31.7456C13.074 31.4719 12.6494 31.3696 12.2197 31.4131C11.4192 31.4936 10.8016 32.041 9.12388 33.913C8.61877 34.477 7.88093 35.3683 7.43848 35.945L12.0458 40.317C13.5778 38.6252 14.1993 37.9961 15.4026 36.7276ZM9.39113 35.6585C10.3195 34.523 11.3054 33.4936 11.753 33.0857C11.8937 32.9565 12.0471 32.8287 12.2338 32.7775C12.5369 32.6944 12.8489 32.9092 12.9192 33.22C12.9896 33.532 12.7939 33.8274 12.5765 34.0729C12.0855 34.6253 10.2863 36.5089 10.2863 36.5089L9.39113 35.6585ZM11.1942 37.3708C11.1942 37.3708 12.9474 35.5179 13.519 34.9245C13.7466 34.6892 13.8924 34.5473 14.0496 34.4693C14.2517 34.3696 14.4729 34.3504 14.6698 34.4821C14.8642 34.6112 14.9537 34.8376 14.9051 35.0588C14.8463 35.3235 14.6315 35.5754 14.4512 35.7685C14.2095 36.0281 12.1302 38.2518 12.1277 38.2557L11.1942 37.3708Z" fill="#14142B"/>
<path d="M26.6647 33.8528C17.9244 33.8528 10.8516 40.9268 10.8516 49.6658C10.8516 58.3997 17.932 65.4789 26.6647 65.4789C35.4049 65.4789 42.4777 58.4048 42.4777 49.6658C42.479 40.932 35.3986 33.8528 26.6647 33.8528ZM26.6647 49.6658V64.6119C18.4231 64.6119 11.7186 57.9074 11.7186 49.6658H26.6647V34.7198C34.9062 34.7198 41.6107 41.4243 41.6107 49.6658H26.6647Z" fill="#14142B"/>
<path d="M90.7498 36.3322C88.2204 36.3322 85.8816 37.6761 84.6066 39.8602L71.1094 63.0005H82.2205H100.358C102.888 63.0005 105.227 61.6565 106.501 59.4724L120 36.3334H90.7498V36.3322ZM73.3728 61.7L85.7307 40.5162C86.7677 38.7375 88.691 37.6326 90.7498 37.6326H97.0182L82.9788 61.7H73.3728ZM103.498 58.3497C102.78 59.5786 101.466 60.3343 100.042 60.3343H95.6602L103.174 47.4535C103.652 46.6338 104.53 46.1299 105.477 46.1299H110.625L103.498 58.3497ZM110.142 44.332H104.994L107.562 39.9293H114.242L112.445 43.0085C111.968 43.8282 111.091 44.332 110.142 44.332Z" fill="#14142B"/>
</svg>
