<svg width="121" height="101" viewBox="0 0 121 101" fill="none" xmlns="http://www.w3.org/2000/svg">
<g clip-path="url(#clip0_1447_10781)">
<g clip-path="url(#clip1_1447_10781)">
<path d="M105.077 64.8006C97.0513 64.8006 90.5226 58.2712 90.5226 50.2463C90.5226 42.2213 97.052 35.6913 105.077 35.6913C113.102 35.6913 119.631 42.2206 119.631 50.2463C119.631 58.2719 113.102 64.8006 105.077 64.8006ZM105.077 44.19C101.738 44.19 99.0207 46.9069 99.0207 50.2463C99.0207 53.5856 101.738 56.3025 105.077 56.3025C108.416 56.3025 111.133 53.5856 111.133 50.2463C111.133 46.9069 108.416 44.19 105.077 44.19Z" fill="black"/>
<path d="M43.1688 63.6381C37.9038 61.5325 34.5107 56.36 34.5107 50.6894V36.7512C34.5107 36.3894 34.8044 36.0956 35.1663 36.0956H42.3532C42.7151 36.0956 43.0088 36.3894 43.0088 36.7512V50.7031C43.0088 52.61 43.9907 54.41 45.6469 55.3556C50.3263 58.0269 55.1213 54.69 55.1213 50.2531V36.7512C55.1213 36.3894 55.4151 36.0956 55.7769 36.0956H62.9638C63.3257 36.0956 63.6194 36.3894 63.6194 36.7512V50.2531C63.6194 60.1819 53.6257 67.8206 43.1688 63.6381Z" fill="black"/>
<path d="M86.8876 45.0338L90.3157 38.8031C90.4926 38.4988 90.392 38.0994 90.0932 37.9131C86.8595 35.8981 82.9807 35.2138 79.0501 36.1006C72.4726 37.5844 67.8713 43.5381 67.8713 50.2806V63.7756C67.8713 64.1375 68.1651 64.4313 68.527 64.4313H75.7138C76.0757 64.4313 76.3695 64.1375 76.3695 63.7756V50.4825C76.3695 47.0869 79.147 44.2188 82.542 44.2188C83.9088 44.2188 85.297 44.8275 85.9645 45.2544C86.2801 45.4563 86.6988 45.3569 86.887 45.0331L86.8876 45.0338Z" fill="black"/>
<path d="M16.0432 56.3056C12.6988 56.3056 9.98758 53.5944 9.98758 50.25C9.98758 46.9056 12.7026 44.1944 16.0476 44.1944C19.3926 44.1944 22.0995 46.9056 22.0995 50.25C22.0995 53.5944 19.3882 56.3056 16.0438 56.3056H16.0432ZM16.0432 64.8087C24.0732 64.8087 30.6057 58.2762 30.6057 50.2462C30.6057 44.0937 26.7695 38.8238 21.3645 36.6944C21.0676 36.5775 20.6995 36.7081 20.5451 36.9875L17.2332 42.9812C16.8482 42.9169 16.3613 42.8819 16.047 42.8819C15.6438 42.8819 15.2457 42.9169 14.8607 42.9812L11.5488 36.9875C11.3945 36.7081 11.0263 36.5775 10.7295 36.6944C5.32508 38.8238 1.48883 44.0937 1.48883 50.2462C1.48883 58.2762 8.02133 64.8087 16.0513 64.8087" fill="black"/>
<path d="M117.508 62.7831V62.9794H116.952V64.4319H116.726V62.9794H116.171V62.7831H117.508Z" fill="black"/>
<path d="M117.708 62.7831H118.028L118.502 64.1775L118.973 62.7831H119.291V64.4325H119.078V63.4594C119.078 63.4256 119.078 63.37 119.08 63.2919C119.082 63.2138 119.083 63.1306 119.083 63.0413L118.612 64.4319H118.391L117.916 63.0413V63.0919C117.916 63.1325 117.917 63.1938 117.919 63.2763C117.921 63.3588 117.922 63.42 117.922 63.4588V64.4319H117.709V62.7825L117.708 62.7831Z" fill="black"/>
</g>
</g>
<defs>
<clipPath id="clip0_1447_10781">
<rect width="120" height="100" fill="white" transform="translate(0.560059 0.25)"/>
</clipPath>
<clipPath id="clip1_1447_10781">
<rect width="120" height="29.875" fill="white" transform="translate(0.560059 35.3125)"/>
</clipPath>
</defs>
</svg>
